<?xml version="1.0" encoding="UTF-8"?><svg xmlns="http://www.w3.org/2000/svg" viewBox="0 0 500 83.89"><defs><style>.d{fill:#024fe8;}</style></defs><g id="a"/><g id="b"><g id="c"><g><rect class="d" x="275.42" y="56.99" width="9.5" height="9.5"/><polygon class="d" points="148.8 22.17 148.8 12.67 113.98 12.67 104.48 12.67 104.48 12.67 104.48 22.17 104.48 22.17 104.48 33.25 104.47 33.25 104.47 42.74 104.48 42.74 104.48 56.99 104.48 56.99 104.48 66.49 104.48 66.49 104.48 66.49 108.5 66.49 148.8 66.49 148.8 56.99 113.98 56.99 113.98 42.74 145.63 42.74 145.63 33.25 113.98 33.25 113.98 22.17 148.8 22.17"/><path class="d" d="M256.44,54.53c-1.92,2.05-5.7,3.25-10.21,3.25s-8.28-1.2-10.21-3.25c-2.77-2.95-3.2-7.37-3.25-9.28h0c-.04-.69-.02-1.38,0-1.69,.03-1.8,.4-6.41,3.26-9.45,1.92-2.05,5.7-3.25,10.21-3.25s8.28,1.2,10.21,3.25c1.5,1.6,2.31,3.63,2.75,5.46h9.75c-.47-3.73-1.77-8.9-5.3-12.66-3.28-3.49-9.72-5.54-17.41-5.54s-14.13,2.05-17.41,5.54c-4.87,5.18-5.5,13.04-5.55,16.12-.02,.53-.06,1.7,0,2.88h0c.09,3.25,.83,10.8,5.55,15.83,3.28,3.49,9.72,5.54,17.41,5.54s14.13-2.05,17.41-5.54c3.53-3.76,4.83-8.93,5.3-12.66h-9.75c-.44,1.83-1.25,3.86-2.75,5.46Z"/><path class="d" d="M490.25,49.08c-.44,1.83-1.25,3.86-2.75,5.46-1.92,2.05-5.7,3.25-10.21,3.25s-8.28-1.2-10.21-3.25c-2.77-2.95-3.2-7.37-3.25-9.28h0c-.04-.69-.02-1.38,0-1.69,.03-1.8,.4-6.41,3.26-9.45,1.92-2.05,5.7-3.25,10.21-3.25s8.28,1.2,10.21,3.25c1.5,1.6,2.31,3.63,2.75,5.46h9.75c-.47-3.73-1.77-8.9-5.3-12.66-3.28-3.49-9.72-5.54-17.41-5.54s-14.13,2.05-17.41,5.54c-4.87,5.18-5.5,13.04-5.55,16.12-.02,.53-.06,1.7,0,2.88h0c.09,3.25,.83,10.8,5.55,15.83,3.28,3.49,9.72,5.54,17.41,5.54s14.13-2.05,17.41-5.54c3.53-3.76,4.83-8.93,5.3-12.66h-9.75Z"/><path class="d" d="M213.55,24.18c-2.86-2.16-5.43-2.68-9.98-2.68-7.43,0-11.37,3.49-13.46,7.19-.66-1.8-1.77-3.24-3.46-4.51-2.86-2.16-5.43-2.68-9.98-2.68-6.57,0-10.41,2.73-12.66,5.92v-5.26h-9.48v44.32h9.48v-29.15s0-6.46,9.5-6.46c7.91,0,7.91,6.46,7.91,6.46v29.15h9.5v-29.15s0-6.46,9.5-6.46c7.91,0,7.91,6.46,7.91,6.46h0v29.15h9.5v-29.15h0s0-.53,0-3.17c0-4.75-1.15-7.64-4.26-9.98Z"/><path class="d" d="M375.58,26.92c-3.28-3.49-9.72-5.54-17.41-5.54s-14.13,2.05-17.41,5.54c-4.87,5.18-5.5,13.04-5.55,16.12-.02,.53-.06,1.7,0,2.88h0c.09,3.25,.83,10.8,5.55,15.83,3.28,3.49,9.72,5.54,17.41,5.54s14.13-2.05,17.41-5.54c4.71-5.01,5.45-12.53,5.55-15.8v-.03c.07-1.23,.03-2.45,0-2.94-.06-3.12-.72-10.91-5.55-16.05Zm-3.95,18.34v.02c-.05,1.92-.49,6.32-3.25,9.26-1.92,2.05-5.7,3.25-10.2,3.25s-8.28-1.2-10.2-3.25c-2.77-2.95-3.2-7.37-3.25-9.28h0c-.04-.69-.02-1.38,0-1.69,.03-1.8,.4-6.41,3.25-9.45,1.92-2.05,5.7-3.25,10.2-3.25s8.28,1.2,10.2,3.25c2.83,3.02,3.22,7.58,3.25,9.41,.01,.29,.04,1.01,0,1.72Z"/><rect class="d" x="439.1" y="22.17" width="9.5" height="44.32"/><rect class="d" x="439.1" y="12.67" width="9.5" height="6.33"/><polygon class="d" points="302.51 12.67 293.02 12.67 293.02 56.99 293.02 66.49 334.17 66.49 334.17 56.99 302.51 56.99 302.51 12.67"/><path class="d" d="M422.45,27.3s-4.78-5.92-14.26-5.92c-3.61,0-9.73,.26-15.04,4.55-4.03,3.26-7.12,8.84-7.12,18.4s3.1,15.15,7.12,18.4c5.31,4.29,11.44,4.55,15.04,4.55,9.5,0,14.26-5.94,14.26-5.94v13.07h-28.5v9.48h33.24c1.59,0,2.92-.42,3.6-1.14,.97-1.03,1.13-2.59,1.15-3.26h0c0-.12,0-.23,0-.33h0V22.17h-9.48v5.13Zm0,17.03v.95c-.1,3.19-1.33,13.29-12.68,13.29-14.24,0-13.45-14.24-13.45-14.24,0,0-.79-14.42,13.45-14.24,11.05,.14,12.52,9.33,12.68,12.87v1.37Z"/><path class="d" d="M69.28,0l-26.54,26.55V0h-9.5V26.52L6.72,0,0,6.7l26.55,26.54H0v9.5H26.52L0,69.26l6.7,6.72,26.54-26.55v26.55h9.5v-26.52l26.52,26.52,6.72-6.7-26.55-26.54h26.55v-9.5h-26.52L75.99,6.72l-6.7-6.72Zm-26.54,42.74h-9.5v-9.5h9.5v9.5Z"/></g></g></g></svg>