<svg xmlns="http://www.w3.org/2000/svg" width="256" height="256" viewBox="15.0 14.7 5.5 5.5" version="1.1">
  <path fill="#024fe8" d="M 19.90625 14.777344 L 18.0625 16.625 L 18.0625 14.777344 L 17.398438 14.777344 L 17.398438 16.621094 L 15.554688 14.777344 L 15.085938 15.242188 L 16.933594 17.089844 L 15.085938 17.089844 L 15.085938 17.75 L 16.933594 17.75 L 15.085938 19.597656 L 15.554688 20.0625 L 17.398438 18.214844 L 17.398438 20.0625 L 18.0625 20.0625 L 18.0625 18.21875 L 19.90625 20.0625 L 20.375 19.597656 L 18.527344 17.75 L 20.375 17.75 L 20.375 17.089844 L 18.527344 17.089844 L 20.375 15.242188 L 19.910156 14.777344 Z M 18.0625 17.75 L 17.398438 17.75 L 17.398438 17.089844 L 18.0625 17.089844 Z" />
</svg>