<svg width="166" height="149" viewBox="0 0 166 149" fill="none" xmlns="http://www.w3.org/2000/svg">
<mask id="path-1-inside-1_664_2" fill="white">
<path fill-rule="evenodd" clip-rule="evenodd" d="M44.4225 47L58.7636 47L58.7636 80.5792L90.9436 47L101 56.2693L67.3333 90.8978L101 90.8447V104.714H100.913V104.768L65.1473 104.714L101 139.343L91.0313 148.612L56.5776 115.033L56.5777 148.612H42.2365V115.033L10.0565 148.612L0.000229692 139.343L33.6669 104.714L0.000194568 104.768L0.00019578 90.898H0.0874363L0.0874362 90.8447L35.8528 90.8978L0 56.2693L9.96882 47L44.4225 80.5792V47Z"/>
</mask>
<path d="M58.7636 47L59.4636 47V46.3L58.7636 46.3V47ZM44.4225 47V46.3L43.7225 46.3V47H44.4225ZM58.7636 80.5792H58.0636V82.3213L59.269 81.0635L58.7636 80.5792ZM90.9436 47L91.418 46.4853L90.9132 46.02L90.4382 46.5157L90.9436 47ZM101 56.2693L101.502 56.7572L102.003 56.2418L101.474 55.7545L101 56.2693ZM67.3333 90.8978L66.8314 90.4098L65.6739 91.6004L67.3344 91.5978L67.3333 90.8978ZM101 90.8447H101.7V90.1436L100.999 90.1447L101 90.8447ZM101 104.714V105.414H101.7V104.714H101ZM100.913 104.714V104.014H100.213V104.714H100.913ZM100.913 104.768L100.912 105.468L101.613 105.469V104.768H100.913ZM65.1473 104.714L65.1484 104.014L63.4123 104.012L64.661 105.218L65.1473 104.714ZM101 139.343L101.477 139.856L102.018 139.353L101.486 138.839L101 139.343ZM91.0313 148.612L90.5427 149.114L91.0199 149.579L91.5079 149.125L91.0313 148.612ZM56.5776 115.033L57.0662 114.532L55.8776 113.373V115.033H56.5776ZM56.5777 148.612V149.312H57.2777V148.612H56.5777ZM42.2365 148.612H41.5365V149.312H42.2365V148.612ZM42.2365 115.033H42.9365V113.291L41.7312 114.549L42.2365 115.033ZM10.0565 148.612L9.58207 149.127L10.0869 149.592L10.5619 149.097L10.0565 148.612ZM0.000229692 139.343L-0.501667 138.855L-1.00279 139.37L-0.474194 139.858L0.000229692 139.343ZM33.6669 104.714L34.1687 105.202L35.3262 104.012L33.6657 104.014L33.6669 104.714ZM0.000194568 104.768H-0.699805L-0.699805 105.469L0.0012988 105.468L0.000194568 104.768ZM0.00019578 90.898V90.198H-0.699804L-0.699804 90.898H0.00019578ZM0.0874363 90.898V91.598H0.787438L0.787436 90.898H0.0874363ZM0.0874362 90.8447L0.0884758 90.1447L-0.612565 90.1436L-0.612564 90.8447H0.0874362ZM35.8528 90.8978L35.8517 91.5978L37.5878 91.6004L36.3391 90.3943L35.8528 90.8978ZM0 56.2693L-0.476661 55.7566L-1.0176 56.2596L-0.486304 56.7727L0 56.2693ZM9.96882 47L10.4574 46.4987L9.98017 46.0336L9.49216 46.4874L9.96882 47ZM44.4225 80.5792L43.9339 81.0805L45.1225 82.2389V80.5792H44.4225ZM58.7636 46.3L44.4225 46.3V47.7L58.7636 47.7V46.3ZM59.4636 80.5792L59.4636 47L58.0636 47L58.0636 80.5792H59.4636ZM90.4382 46.5157L58.2582 80.0948L59.269 81.0635L91.449 47.4843L90.4382 46.5157ZM101.474 55.7545L91.418 46.4853L90.4692 47.5147L100.525 56.784L101.474 55.7545ZM67.8352 91.3857L101.502 56.7572L100.498 55.7813L66.8314 90.4098L67.8352 91.3857ZM100.999 90.1447L67.3321 90.1978L67.3344 91.5978L101.001 91.5447L100.999 90.1447ZM101.7 104.714V90.8447H100.3V104.714H101.7ZM100.913 105.414H101V104.014H100.913V105.414ZM101.613 104.768V104.714H100.213V104.768H101.613ZM65.1463 105.414L100.912 105.468L100.914 104.068L65.1484 104.014L65.1463 105.414ZM101.486 138.839L65.6336 104.211L64.661 105.218L100.514 139.846L101.486 138.839ZM91.5079 149.125L101.477 139.856L100.523 138.83L90.5546 148.1L91.5079 149.125ZM56.0891 115.534L90.5427 149.114L91.5199 148.111L57.0662 114.532L56.0891 115.534ZM57.2777 148.612L57.2776 115.033H55.8776L55.8777 148.612H57.2777ZM42.2365 149.312H56.5777V147.912H42.2365V149.312ZM41.5365 115.033V148.612H42.9365V115.033H41.5365ZM10.5619 149.097L42.7419 115.517L41.7312 114.549L9.5511 148.128L10.5619 149.097ZM-0.474194 139.858L9.58207 149.127L10.5309 148.098L0.474654 138.828L-0.474194 139.858ZM33.165 104.227L-0.501667 138.855L0.502126 139.831L34.1687 105.202L33.165 104.227ZM0.0012988 105.468L33.668 105.414L33.6657 104.014L-0.000909661 104.068L0.0012988 105.468ZM-0.699804 90.898L-0.699805 104.768H0.700195L0.700196 90.898H-0.699804ZM0.0874363 90.198H0.00019578V91.598H0.0874363V90.198ZM-0.612564 90.8447L-0.612564 90.898H0.787436L0.787436 90.8447H-0.612564ZM35.8538 90.1978L0.0884758 90.1447L0.0863966 91.5447L35.8517 91.5978L35.8538 90.1978ZM-0.486304 56.7727L35.3665 91.4013L36.3391 90.3943L0.486304 55.7658L-0.486304 56.7727ZM9.49216 46.4874L-0.476661 55.7566L0.476661 56.7819L10.4455 47.5126L9.49216 46.4874ZM44.911 80.0779L10.4574 46.4987L9.48025 47.5013L43.9339 81.0805L44.911 80.0779ZM43.7225 47V80.5792H45.1225V47H43.7225Z" fill="#024FE7" mask="url(#path-1-inside-1_664_2)"/>
<mask id="path-3-inside-2_664_2" fill="white">
<path fill-rule="evenodd" clip-rule="evenodd" d="M140.792 24L147.182 24V38.961L161.519 24L166 28.1299L151 43.5583H151.1L166 43.5348V49.7143H165.961V49.7378L150.133 49.7143H150.026L166 65.1426L161.558 69.2725L146.208 54.3115V69.2725L139.818 69.2725V54.3115L125.481 69.2725L121 65.1427L136 49.7143H135.902L121 49.7378L121 43.5583H121.039L121.039 43.5348L136.868 43.5583H136.974L121 28.1299L125.442 24L140.792 38.961V24Z"/>
</mask>
<path d="M147.182 24H147.882V23.3L147.182 23.3V24ZM140.792 24V23.3L140.092 23.3V24H140.792ZM147.182 38.961H146.482V40.7032L147.687 39.4454L147.182 38.961ZM161.519 24L161.994 23.4853L161.489 23.02L161.014 23.5157L161.519 24ZM166 28.1299L166.502 28.6178L167.003 28.1024L166.474 27.6152L166 28.1299ZM151 43.5583L150.498 43.0703L149.343 44.2583H151V43.5583ZM151.1 43.5583V44.2583L151.101 44.2583L151.1 43.5583ZM166 43.5348H166.7V42.8337L165.999 42.8348L166 43.5348ZM166 49.7143V50.4143H166.7V49.7143H166ZM165.961 49.7143V49.0143H165.261V49.7143H165.961ZM165.961 49.7378L165.96 50.4378L166.661 50.4388V49.7378H165.961ZM150.133 49.7143L150.134 49.0143H150.133V49.7143ZM150.026 49.7143V49.0143H148.294L149.54 50.2178L150.026 49.7143ZM166 65.1426L166.477 65.6553L167.018 65.1523L166.486 64.6391L166 65.1426ZM161.558 69.2725L161.07 69.7738L161.547 70.2389L162.035 69.7851L161.558 69.2725ZM146.208 54.3115L146.696 53.8102L145.508 52.6518V54.3115H146.208ZM146.208 69.2725V69.9725H146.908V69.2725H146.208ZM139.818 69.2725H139.118V69.9725H139.818V69.2725ZM139.818 54.3115H140.518V52.5694L139.313 53.8272L139.818 54.3115ZM125.481 69.2725L125.006 69.7872L125.511 70.2525L125.986 69.7568L125.481 69.2725ZM121 65.1427L120.498 64.6547L119.997 65.1701L120.526 65.6574L121 65.1427ZM136 49.7143L136.502 50.2022L137.657 49.0142H136V49.7143ZM135.902 49.7143V49.0142L135.901 49.0143L135.902 49.7143ZM121 49.7378H120.3L120.3 50.4389L121.001 50.4378L121 49.7378ZM121 43.5583V42.8583H120.3L120.3 43.5583H121ZM121.039 43.5583V44.2583H121.739L121.739 43.5583L121.039 43.5583ZM121.039 43.5348L121.04 42.8348L120.339 42.8337L120.339 43.5348L121.039 43.5348ZM136.868 43.5583L136.867 44.2583H136.868V43.5583ZM136.974 43.5583V44.2583H138.706L137.46 43.0548L136.974 43.5583ZM121 28.1299L120.523 27.6172L119.982 28.1202L120.514 28.6334L121 28.1299ZM125.442 24L125.93 23.4987L125.453 23.0336L124.965 23.4874L125.442 24ZM140.792 38.961L140.304 39.4623L141.492 40.6207V38.961H140.792ZM147.182 23.3L140.792 23.3V24.7L147.182 24.7V23.3ZM147.882 38.961V24H146.482V38.961H147.882ZM161.014 23.5157L146.676 38.4767L147.687 39.4454L162.025 24.4843L161.014 23.5157ZM166.474 27.6152L161.994 23.4853L161.045 24.5147L165.526 28.6446L166.474 27.6152ZM151.502 44.0462L166.502 28.6178L165.498 27.6419L150.498 43.0703L151.502 44.0462ZM151.1 42.8583H151V44.2583H151.1V42.8583ZM165.999 42.8348L151.099 42.8583L151.101 44.2583L166.001 44.2348L165.999 42.8348ZM166.7 49.7143V43.5348H165.3V49.7143H166.7ZM165.961 50.4143H166V49.0143H165.961V50.4143ZM166.661 49.7378V49.7143H165.261V49.7378H166.661ZM150.132 50.4143L165.96 50.4378L165.962 49.0378L150.134 49.0143L150.132 50.4143ZM150.026 50.4143H150.133V49.0143H150.026V50.4143ZM166.486 64.6391L150.513 49.2108L149.54 50.2178L165.514 65.6461L166.486 64.6391ZM162.035 69.7851L166.477 65.6553L165.523 64.63L161.082 68.7599L162.035 69.7851ZM145.719 54.8128L161.07 69.7738L162.047 68.7712L146.696 53.8102L145.719 54.8128ZM146.908 69.2725V54.3115H145.508V69.2725H146.908ZM139.818 69.9725L146.208 69.9725V68.5725L139.818 68.5725V69.9725ZM139.118 54.3115V69.2725H140.518V54.3115H139.118ZM125.986 69.7568L140.324 54.7958L139.313 53.8272L124.975 68.7882L125.986 69.7568ZM120.526 65.6574L125.006 69.7872L125.955 68.7578L121.475 64.6279L120.526 65.6574ZM135.498 49.2263L120.498 64.6547L121.502 65.6306L136.502 50.2022L135.498 49.2263ZM135.902 50.4143H136V49.0142H135.902V50.4143ZM121.001 50.4378L135.903 50.4142L135.901 49.0143L120.999 49.0378L121.001 50.4378ZM120.3 43.5583L120.3 49.7378H121.7L121.7 43.5583H120.3ZM121.039 42.8583H121V44.2583H121.039V42.8583ZM120.339 43.5348L120.339 43.5583L121.739 43.5583L121.739 43.5348L120.339 43.5348ZM136.869 42.8583L121.04 42.8348L121.038 44.2348L136.867 44.2583L136.869 42.8583ZM136.974 42.8583H136.868V44.2583H136.974V42.8583ZM120.514 28.6334L136.488 44.0618L137.46 43.0548L121.486 27.6264L120.514 28.6334ZM124.965 23.4874L120.523 27.6172L121.477 28.6425L125.918 24.5126L124.965 23.4874ZM141.281 38.4597L125.93 23.4987L124.953 24.5013L140.304 39.4623L141.281 38.4597ZM140.092 24V38.961H141.492V24H140.092Z" fill="#024FE7" mask="url(#path-3-inside-2_664_2)"/>
<mask id="path-5-inside-3_664_2" fill="white">
<path fill-rule="evenodd" clip-rule="evenodd" d="M87.5701 0L91.0001 2.4574e-06L91.0001 8.03126L98.6968 0L101.102 2.21696L93.05 10.499H93.1554L101.102 10.4865V13.8037H101.081V13.8163L92.6405 13.8037H92.5272L101.102 22.0858L98.7178 24.3028L90.4774 16.2715L90.4774 24.3028L87.0474 24.3028L87.0474 16.2715L79.3508 24.3028L76.9456 22.0858L84.9976 13.8037H84.893L76.9456 13.8163L76.9456 10.499H76.9663L76.9663 10.4865L85.4073 10.499H85.5203L76.9454 2.21696L79.3297 0L87.5701 8.03126L87.5701 0Z"/>
</mask>
<path d="M91.0001 2.4574e-06L91.5001 2.39803e-06V-0.499997L91.0001 -0.499998V2.4574e-06ZM87.5701 0V-0.5L87.0701 -0.5V5.93726e-08L87.5701 0ZM91.0001 8.03126H90.5001V9.27564L91.3611 8.37722L91.0001 8.03126ZM98.6968 0L99.0356 -0.367647L98.6751 -0.700001L98.3358 -0.345953L98.6968 0ZM101.102 2.21696L101.46 2.5655L101.818 2.19733L101.441 1.84932L101.102 2.21696ZM93.05 10.499L92.6915 10.1505L91.8665 10.999H93.05V10.499ZM93.1554 10.499V10.999L93.1562 10.999L93.1554 10.499ZM101.102 10.4865H101.602V9.98571L101.101 9.9865L101.102 10.4865ZM101.102 13.8037V14.3037H101.602V13.8037H101.102ZM101.081 13.8037V13.3037H100.581V13.8037H101.081ZM101.081 13.8163L101.08 14.3163L101.581 14.317V13.8163H101.081ZM92.6405 13.8037L92.6412 13.3037H92.6405V13.8037ZM92.5272 13.8037V13.3037H91.2898L92.1799 14.1634L92.5272 13.8037ZM101.102 22.0858L101.443 22.452L101.829 22.0927L101.449 21.7262L101.102 22.0858ZM98.7178 24.3028L98.3688 24.6608L98.7097 24.9931L99.0583 24.6689L98.7178 24.3028ZM90.4774 16.2715L90.8264 15.9134L89.9774 15.086V16.2715H90.4774ZM90.4774 24.3028V24.8028H90.9774V24.3028H90.4774ZM87.0474 24.3028H86.5474V24.8028H87.0474V24.3028ZM87.0474 16.2715H87.5474V15.0271L86.6864 15.9256L87.0474 16.2715ZM79.3508 24.3028L79.0119 24.6704L79.3725 25.0028L79.7118 24.6487L79.3508 24.3028ZM76.9456 22.0858L76.5871 21.7373L76.2291 22.1054L76.6067 22.4535L76.9456 22.0858ZM84.9976 13.8037L85.3561 14.1523L86.1811 13.3037H84.9976V13.8037ZM84.893 13.8037V13.3037L84.8922 13.3037L84.893 13.8037ZM76.9456 13.8163H76.4456L76.4456 14.3171L76.9464 14.3163L76.9456 13.8163ZM76.9456 10.499V9.99903H76.4456L76.4456 10.499H76.9456ZM76.9663 10.499V10.999H77.4663L77.4663 10.499L76.9663 10.499ZM76.9663 10.4865L76.9671 9.9865L76.4663 9.98576L76.4663 10.4865L76.9663 10.4865ZM85.4073 10.499L85.4065 10.999H85.4073V10.499ZM85.5203 10.499V10.999H86.7577L85.8677 10.1394L85.5203 10.499ZM76.9454 2.21696L76.605 1.8508L76.2186 2.21007L76.5981 2.5766L76.9454 2.21696ZM79.3297 0L79.6787 -0.358068L79.3378 -0.690287L78.9892 -0.366168L79.3297 0ZM87.5701 8.03126L87.2211 8.38933L88.0701 9.21676V8.03126H87.5701ZM91.0001 -0.499998L87.5701 -0.5V0.5L91.0001 0.500002V-0.499998ZM91.5001 8.03126L91.5001 2.39803e-06L90.5001 2.51678e-06L90.5001 8.03126H91.5001ZM98.3358 -0.345953L90.6392 7.68531L91.3611 8.37722L99.0578 0.345953L98.3358 -0.345953ZM101.441 1.84932L99.0356 -0.367647L98.3579 0.367647L100.763 2.58461L101.441 1.84932ZM93.4084 10.8476L101.46 2.5655L100.743 1.86842L92.6915 10.1505L93.4084 10.8476ZM93.1554 9.99904H93.05V10.999H93.1554V9.99904ZM101.101 9.9865L93.1546 9.99904L93.1562 10.999L101.103 10.9865L101.101 9.9865ZM101.602 13.8037V10.4865H100.602V13.8037H101.602ZM101.081 14.3037H101.102V13.3037H101.081V14.3037ZM101.581 13.8163V13.8037H100.581V13.8163H101.581ZM92.6397 14.3037L101.08 14.3163L101.082 13.3163L92.6412 13.3037L92.6397 14.3037ZM92.5272 14.3037H92.6405V13.3037H92.5272V14.3037ZM101.449 21.7262L92.8746 13.4441L92.1799 14.1634L100.755 22.4454L101.449 21.7262ZM99.0583 24.6689L101.443 22.452L100.762 21.7196L98.3774 23.9366L99.0583 24.6689ZM90.1284 16.6296L98.3688 24.6608L99.0668 23.9447L90.8264 15.9134L90.1284 16.6296ZM90.9774 24.3028L90.9774 16.2715H89.9774L89.9774 24.3028H90.9774ZM87.0474 24.8028L90.4774 24.8028V23.8028L87.0474 23.8028V24.8028ZM86.5474 16.2715L86.5474 24.3028H87.5474L87.5474 16.2715H86.5474ZM79.7118 24.6487L87.4084 16.6175L86.6864 15.9256L78.9898 23.9568L79.7118 24.6487ZM76.6067 22.4535L79.0119 24.6704L79.6896 23.9351L77.2845 21.7182L76.6067 22.4535ZM84.6391 13.4552L76.5871 21.7373L77.3041 22.4343L85.3561 14.1523L84.6391 13.4552ZM84.893 14.3037H84.9976V13.3037H84.893V14.3037ZM76.9464 14.3163L84.8938 14.3037L84.8922 13.3037L76.9448 13.3163L76.9464 14.3163ZM76.4456 10.499L76.4456 13.8163H77.4456L77.4456 10.499H76.4456ZM76.9663 9.99903H76.9456V10.999H76.9663V9.99903ZM76.4663 10.4865L76.4663 10.499L77.4663 10.499L77.4663 10.4865L76.4663 10.4865ZM85.408 9.99904L76.9671 9.9865L76.9656 10.9865L85.4065 10.999L85.408 9.99904ZM85.5203 9.99904H85.4073V10.999H85.5203V9.99904ZM76.5981 2.5766L85.1729 10.8587L85.8677 10.1394L77.2928 1.85732L76.5981 2.5766ZM78.9892 -0.366168L76.605 1.8508L77.2859 2.58313L79.6702 0.366168L78.9892 -0.366168ZM87.9191 7.67319L79.6787 -0.358068L78.9807 0.358068L87.2211 8.38933L87.9191 7.67319ZM87.0701 5.93726e-08L87.0701 8.03126H88.0701L88.0701 -5.93726e-08L87.0701 5.93726e-08Z" fill="#024FE7" mask="url(#path-5-inside-3_664_2)"/>
</svg>
